<?xml version="1.0" encoding="UTF-8"?>
<svg xmlns="http://www.w3.org/2000/svg" xmlns:xlink="http://www.w3.org/1999/xlink" viewBox="0 0 150 150" width="150px" height="150px">
<g id="surface115852635">
<path style=" stroke:none;fill-rule:nonzero;fill:rgb(18.431373%,21.960784%,47.843137%);fill-opacity:1;" d="M 74.90625 5.953125 C 74.859375 5.964844 74.824219 5.964844 74.800781 5.964844 C 74.753906 5.964844 74.707031 5.976562 74.660156 5.976562 C 74.601562 5.988281 74.542969 6 74.484375 6 C 74.4375 6.011719 74.378906 6.023438 74.332031 6.035156 C 74.320312 6.035156 74.296875 6.046875 74.285156 6.046875 C 74.203125 6.070312 74.121094 6.09375 74.039062 6.117188 C 74.015625 6.128906 73.992188 6.128906 73.96875 6.140625 C 73.910156 6.164062 73.851562 6.1875 73.78125 6.210938 C 73.746094 6.234375 73.710938 6.246094 73.675781 6.269531 C 73.605469 6.304688 73.546875 6.328125 73.488281 6.375 C 73.476562 6.375 73.476562 6.375 73.476562 6.375 C 73.476562 6.375 73.476562 6.375 73.464844 6.375 C 72.878906 6.726562 72.421875 7.277344 72.1875 7.921875 L 20.308594 103.875 C 20.308594 103.886719 20.308594 103.886719 20.296875 103.886719 C 20.238281 103.992188 20.179688 104.097656 20.132812 104.203125 L 12.679688 117.984375 C 11.707031 119.121094 11.71875 120.796875 12.703125 121.921875 L 27.398438 139.558594 C 27.984375 140.601562 29.121094 141.199219 30.316406 141.082031 L 50.578125 143.964844 C 52.171875 144.199219 53.660156 143.121094 53.953125 141.539062 L 57.328125 123 L 92.671875 123 L 96.046875 141.539062 C 96.339844 143.121094 97.828125 144.199219 99.421875 143.964844 L 119.847656 141.046875 C 120.984375 141.117188 122.050781 140.53125 122.625 139.546875 L 137.296875 121.921875 C 137.320312 121.898438 137.332031 121.886719 137.34375 121.863281 C 138.292969 120.738281 138.28125 119.097656 137.320312 117.984375 L 110.378906 68.144531 C 110.273438 67.875 110.144531 67.628906 109.96875 67.40625 L 77.8125 7.898438 C 77.472656 7.007812 76.734375 6.328125 75.808594 6.070312 L 75.796875 6.070312 C 75.609375 6.011719 75.410156 5.976562 75.222656 5.964844 C 75.210938 5.964844 75.210938 5.964844 75.199219 5.964844 C 75.105469 5.953125 75 5.953125 74.90625 5.953125 Z M 75 25.78125 L 84.128906 75.972656 L 64.335938 84.445312 Z M 81.328125 27 L 103.347656 67.734375 L 89.789062 73.546875 Z M 68.671875 27.011719 L 57.714844 87.28125 L 29.578125 99.339844 Z M 106.207031 73.03125 L 129.972656 117 L 117.46875 117 C 117.328125 116.976562 117.1875 116.964844 117.046875 116.953125 C 116.871094 116.953125 116.683594 116.964844 116.507812 117 L 97.6875 117 L 90.890625 79.59375 Z M 85.21875 82.03125 L 91.582031 117 L 58.40625 117 L 63.046875 91.535156 Z M 56.425781 94.371094 L 52.3125 117 L 31.265625 117 L 30.304688 105.5625 Z M 24.539062 108.644531 L 25.242188 117 L 20.027344 117 Z M 21.398438 123 L 25.734375 123 L 26.226562 128.777344 Z M 31.757812 123 L 51.222656 123 L 48.5625 137.625 L 32.789062 135.375 Z M 98.777344 123 L 114.457031 123 L 116.53125 135.46875 L 101.4375 137.625 Z M 120.539062 123 L 128.589844 123 L 121.875 131.0625 Z M 120.539062 123 "/>
</g>
</svg>
